# xmcd
#
# Track frame offsets:
# 150
# 19192
# 37567
# 55132
# 73977
# 89125
# 101662
# 120072
# 140320
# 156235
# 171770
# 187407
#
# Disc length: 2798 seconds
#
#
# Revision: 2
# Processed by: cddbd v1.5.2PL0 Copyright (c) Steve Scherf et al.
# Submitted via: FreeRIP 2.944 
#
DISCID=a10aec0c
DTITLE=Hana Hegerova - Potmesily host
DYEAR=1900
DGENRE=
TTITLE0=Stin stiha stin
TTITLE1=Jinde
TTITLE2=Levandulova
TTITLE3=Gabriel
TTITLE4=Vsechno je nejlepsi
TTITLE5=Vune
TTITLE6=Denim blue
TTITLE7=Zit a nechat zit
TTITLE8=Vana plna fialek
TTITLE9=Kolotoc
TTITLE10=Tata mel rad Maji Westovou
TTITLE11=Potmesily host
EXTD=
EXTT0=
EXTT1=
EXTT2=
EXTT3=
EXTT4=
EXTT5=
EXTT6=
EXTT7=
EXTT8=
EXTT9=
EXTT10=
EXTT11=
PLAYORDER=
